<svg viewBox="0 0 347 234" xmlns="http://www.w3.org/2000/svg" xml:space="preserve" style="fill-rule:evenodd;clip-rule:evenodd;stroke-linejoin:round;stroke-miterlimit:2"><path style="fill:none" d="M3.5-.167H350V233.333H3.5z" transform="translate(-3.5 .167)"/><path d="M0,33.793C-9.142,33.793 -15.527,26.875 -15.527,16.969C-15.527,6.979 -9.142,0 0,0C9.142,0 15.527,6.979 15.527,16.969C15.527,26.875 9.142,33.793 0,33.793" style="fill:#f7c819;fill-rule:nonzero" transform="translate(201.85 80.338) scale(4.16667)"/><path d="M0,-36.291C-9.072,-36.291 -16.777,-29.666 -16.777,-18.074C-16.777,-6.625 -9.072,0 0,0C9.073,0 16.777,-6.625 16.777,-18.074C16.777,-29.666 9.073,-36.291 0,-36.291M0,-33.791C7.107,-33.791 14.277,-28.932 14.277,-18.074C14.277,-7.316 7.107,-2.5 0,-2.5C-7.107,-2.5 -14.277,-7.316 -14.277,-18.074C-14.277,-28.932 -7.107,-33.791 0,-33.791" style="fill-rule:nonzero" transform="translate(201.85 226.35) scale(4.16667)"/><path d="M0,22.035C2.952,24.482 6.049,26.428 11.017,26.428C16.417,26.428 19.226,23.26 19.226,19.586C19.226,15.265 14.761,13.394 10.801,11.955C5.544,10.082 -0.216,7.994 -0.216,2.09C-0.216,-2.951 3.745,-7.129 10.945,-7.129C14.617,-7.129 18.29,-5.615 20.81,-3.527L19.081,-1.295C16.777,-3.024 14.329,-4.391 10.801,-4.391C5.473,-4.391 3.024,-1.295 3.024,1.873C3.024,5.834 7.057,7.346 11.161,8.857C16.561,10.875 22.466,12.674 22.466,19.443C22.466,24.627 18.29,29.164 10.801,29.164C5.688,29.164 1.224,27.004 -1.872,24.412L0,22.035Z" style="fill-rule:nonzero" transform="translate(14.69 104.834) scale(4.16667)"/><path d="M0,-52.637L3.169,-52.637L3.169,-5.041C3.169,-3.53 3.816,-2.809 4.681,-2.809C4.968,-2.809 5.256,-2.809 5.977,-2.953L6.553,-0.362C5.905,-0.145 5.256,0 4.249,0C1.44,0 0,-1.729 0,-5.473L0,-52.637Z" style="fill-rule:nonzero" transform="translate(308.957 226.351) scale(4.16667)"/></svg>