<?xml version="1.0" encoding="utf-8"?>
<!-- Generator: Adobe Illustrator 15.0.2, SVG Export Plug-In . SVG Version: 6.00 Build 0)  -->
<!DOCTYPE svg PUBLIC "-//W3C//DTD SVG 1.1//EN" "http://www.w3.org/Graphics/SVG/1.1/DTD/svg11.dtd">
<svg version="1.1" id="Layer_1" xmlns="http://www.w3.org/2000/svg" xmlns:xlink="http://www.w3.org/1999/xlink" x="0px" y="0px"
	 width="178px" height="56px" viewBox="-206.5 428.5 178 56" enable-background="new -206.5 428.5 178 56" xml:space="preserve">
<g>
	<g>
		<g opacity="0.3">
			<path d="M-158.344,446.845c9.073,0,16.777,6.625,16.777,18.218c0,11.448-7.704,18.073-16.777,18.073
				c-9.072,0-16.777-6.625-16.777-18.073C-175.122,453.47-167.417,446.845-158.344,446.845z"/>
		</g>
		<g>
			<path fill="#F7C819" d="M-158.344,445.845c9.073,0,16.777,6.625,16.777,18.218c0,11.448-7.704,18.073-16.777,18.073
				c-9.072,0-16.777-6.625-16.777-18.073C-175.122,452.47-167.417,445.845-158.344,445.845z"/>
		</g>
	</g>
	<g>
		<g opacity="0.3">
			<path d="M-203.263,476.008c2.952,2.447,6.049,4.393,11.017,4.393c5.4,0,8.208-3.168,8.208-6.842c0-4.32-4.464-6.191-8.424-7.632
				c-5.257-1.872-11.017-3.961-11.017-9.866c0-5.039,3.96-9.217,11.161-9.217c3.672,0,7.345,1.512,9.865,3.602l-1.729,2.231
				c-2.304-1.728-4.752-3.096-8.28-3.096c-5.329,0-7.777,3.096-7.777,6.265c0,3.961,4.032,5.473,8.137,6.984
				c5.4,2.018,11.305,3.816,11.305,10.586c0,5.184-4.176,9.721-11.665,9.721c-5.113,0-9.577-2.16-12.673-4.752L-203.263,476.008z"/>
		</g>
		<g>
			<path fill="#F7C819" d="M-203.263,475.008c2.952,2.447,6.049,4.393,11.017,4.393c5.4,0,8.208-3.168,8.208-6.842
				c0-4.32-4.464-6.191-8.424-7.632c-5.257-1.872-11.017-3.961-11.017-9.866c0-5.039,3.96-9.217,11.161-9.217
				c3.672,0,7.345,1.512,9.865,3.602l-1.729,2.231c-2.304-1.728-4.752-3.096-8.28-3.096c-5.329,0-7.777,3.096-7.777,6.265
				c0,3.961,4.032,5.473,8.137,6.984c5.4,2.018,11.305,3.816,11.305,10.586c0,5.184-4.176,9.721-11.665,9.721
				c-5.113,0-9.577-2.16-12.673-4.752L-203.263,475.008z"/>
		</g>
	</g>
	<g>
		<g opacity="0.3">
			<path d="M-132.639,430.5h3.168v47.596c0,1.512,0.648,2.232,1.512,2.232c0.288,0,0.576,0,1.296-0.145l0.576,2.592
				c-0.648,0.217-1.296,0.36-2.304,0.36c-2.809,0-4.249-1.729-4.249-5.473L-132.639,430.5L-132.639,430.5z"/>
		</g>
		<g>
			<path fill="#F7C819" d="M-132.639,429.5h3.168v47.596c0,1.512,0.648,2.232,1.512,2.232c0.288,0,0.576,0,1.296-0.145l0.576,2.592
				c-0.648,0.217-1.296,0.36-2.304,0.36c-2.809,0-4.249-1.729-4.249-5.473L-132.639,429.5L-132.639,429.5z"/>
		</g>
	</g>
</g>
<g>
	<path fill="#666666" d="M-118.451,446.709h2.736l0.288,5.329h0.216c3.528-3.528,7.129-6.193,11.881-6.193
		c7.128,0,10.441,4.32,10.441,13.249v22.178h-3.168v-21.746c0-7.344-2.304-10.801-7.921-10.801c-4.104,0-7.057,2.16-11.305,6.48
		v26.064h-3.168V446.709L-118.451,446.709z"/>
	<path fill="#666666" d="M-67.993,445.845c8.209,0,13.25,5.833,13.25,15.985c0,0.865,0,1.729-0.144,2.592h-24.916
		c0.144,8.713,5.257,14.979,13.033,14.979c3.745,0,6.697-1.225,9.289-3.096l1.297,2.447c-2.736,1.656-5.834,3.385-10.873,3.385
		c-8.856,0-15.985-6.77-15.985-18.074C-83.042,452.759-75.698,445.845-67.993,445.845z M-57.767,461.975
		c0-8.855-3.961-13.393-10.154-13.393c-5.904,0-11.16,5.111-11.88,13.393H-57.767z"/>
	<path fill="#666666" d="M-44.444,449.445h-5.399v-2.447l5.473-0.288l0.432-10.009h2.736v10.009h10.009v2.735h-10.009v22.539
		c0,4.392,1.08,7.345,5.833,7.345c1.296,0,3.097-0.504,4.319-1.08l0.865,2.592c-2.017,0.722-4.177,1.298-5.617,1.298
		c-6.696,0-8.641-4.248-8.641-10.441L-44.444,449.445L-44.444,449.445z"/>
</g>
</svg>
