<svg xmlns="http://www.w3.org/2000/svg" width="240" height="110" xml:space="preserve"><path fill="#F7C819" d="M49.164,52.834c-9.142,0-15.527-6.918-15.527-16.824c0-9.99,6.385-16.969,15.527-16.969 S64.691,26.02,64.691,36.01C64.691,45.916,58.306,52.834,49.164,52.834"/><path d="M49.164 20.293c7.107 0 14.277 4.859 14.277 15.717 0 10.758-7.17 15.574-14.277 15.574S34.887 46.768 34.887 36.01C34.887 25.152 42.057 20.293 49.164 20.293M49.164 17.793c-9.072 0-16.777 6.625-16.777 18.217 0 11.449 7.705 18.074 16.777 18.074 9.073 0 16.777-6.625 16.777-18.074C65.941 24.418 58.237 17.793 49.164 17.793M4.246 46.955c2.952 2.447 6.049 4.393 11.017 4.393 5.4 0 8.209-3.168 8.209-6.842 0-4.32-4.465-6.191-8.425-7.631C9.79 35.002 4.03 32.914 4.03 27.01c0-5.041 3.961-9.219 11.161-9.219 3.672 0 7.345 1.514 9.865 3.602l-1.729 2.232c-2.304-1.729-4.752-3.096-8.28-3.096-5.328 0-7.777 3.096-7.777 6.264 0 3.961 4.033 5.473 8.137 6.984 5.4 2.018 11.305 3.816 11.305 10.586 0 5.184-4.176 9.721-11.665 9.721-5.113 0-9.577-2.16-12.673-4.752L4.246 46.955zM74.87 1.447h3.169v47.596c0 1.512.647 2.232 1.512 2.232.287 0 .575 0 1.296-.145l.576 2.592c-.648.217-1.297.361-2.304.361-2.809 0-4.249-1.729-4.249-5.473V1.447zM110.886 31.545c.144-5.256-1.368-10.945-8.136-10.945-4.681 0-8.713 2.307-11.018 4.033l-1.439-2.377c2.448-1.727 7.2-4.463 12.816-4.463 8.209 0 10.945 5.904 10.945 13.32v22.105h-2.664l-.36-4.463h-.144c-3.528 2.807-7.704 5.328-12.241 5.328-5.473 0-10.081-2.953-10.081-9.506C88.564 36.945 95.549 33.273 110.886 31.545M99.149 51.348c3.96 0 7.489-1.945 11.737-5.617V33.994c-14.185 1.656-19.009 4.969-19.009 10.441C91.877 49.402 95.189 51.348 99.149 51.348M125.947 18.656h2.734l.289 6.41h.215c2.305-4.25 5.689-7.273 9.793-7.273 1.297 0 2.305.145 3.457.719l-.721 2.881c-1.152-.432-1.799-.576-3.168-.576-3.096 0-6.77 2.377-9.432 8.857v23.545h-3.168V18.656zM2.374 73.125h2.736l.288 5.33h.216c3.528-3.529 7.129-6.193 11.881-6.193 7.129 0 10.441 4.32 10.441 13.248v22.178h-3.168V85.941c0-7.342-2.304-10.799-7.921-10.799-4.104 0-7.057 2.16-11.305 6.48v26.064H2.374V73.125zM52.832 72.262c8.209 0 13.249 5.832 13.249 15.984 0 .865 0 1.729-.144 2.592H41.023c.144 8.713 5.257 14.979 13.033 14.979 3.745 0 6.697-1.225 9.289-3.096l1.296 2.447c-2.736 1.656-5.833 3.385-10.873 3.385-8.857 0-15.985-6.77-15.985-18.074S45.127 72.262 52.832 72.262M63.057 88.391c0-8.855-3.96-13.393-10.153-13.393-5.905 0-11.161 5.111-11.881 13.393H63.057zM76.381 75.861h-5.4v-2.447l5.472-.287.432-10.01h2.736v10.01H89.63v2.734H79.621V98.4c0 4.391 1.08 7.344 5.833 7.344 1.296 0 3.096-.504 4.32-1.08l.864 2.592c-2.016.721-4.176 1.297-5.616 1.297-6.697 0-8.641-4.248-8.641-10.441V75.861zM95.684 73.125h3.457l6.192 22.395c.864 3.168 1.656 6.121 2.376 9.217h.288c.792-3.096 1.656-6.049 2.52-9.217l6.265-22.395h3.816l6.266 22.395c.863 3.168 1.727 6.121 2.592 9.217h.287c.793-3.096 1.656-6.049 2.449-9.217l6.119-22.395h3.24l-9.936 34.562h-4.176l-6.049-21.457c-1.01-3.312-1.657-6.48-2.665-9.865h-.288c-.792 3.385-1.656 6.697-2.736 10.01l-5.976 21.312h-3.817L95.684 73.125zM162.148 72.262c8.354 0 15.553 6.625 15.553 18.217 0 11.449-7.199 18.074-15.553 18.074-8.281 0-15.48-6.625-15.48-18.074C146.668 78.887 153.867 72.262 162.148 72.262M162.148 105.744c6.984 0 12.24-6.193 12.24-15.266 0-9.145-5.256-15.408-12.24-15.408s-12.17 6.264-12.17 15.408C149.979 99.551 155.164 105.744 162.148 105.744M187.893 73.125h2.736l.287 6.41h.217c2.307-4.25 5.691-7.273 9.793-7.273 1.297 0 2.307.145 3.457.721l-.719 2.879c-1.154-.432-1.801-.576-3.168-.576-3.096 0-6.771 2.377-9.436 8.857v23.545h-3.168V73.125zM211.703 55.916 214.871 55.916 214.871 94.078 215.016 94.078 232.08 73.125 235.754 73.125 224.52 86.807 237.627 107.688 234.098 107.688 222.646 89.184 214.871 98.256 214.871 107.688 211.703 107.688z"/></svg>